<mxfile host="app.diagrams.net" modified="2023-10-29T20:59:26.086Z" agent="Mozilla/5.0 (Windows NT 10.0; Win64; x64) AppleWebKit/537.36 (KHTML, like Gecko) Chrome/116.0.0.0 Safari/537.36 OPR/102.0.0.0" etag="VMBIWmh4T_IXx8NFLoIY" version="22.0.8" type="github">
  <diagram name="Strona-1" id="WeGOFRSQpwsFxCZVdw5R">
    <mxGraphModel dx="961" dy="550" grid="1" gridSize="10" guides="1" tooltips="1" connect="1" arrows="1" fold="1" page="1" pageScale="1" pageWidth="827" pageHeight="1169" math="0" shadow="0">
      <root>
        <mxCell id="0" />
        <mxCell id="1" parent="0" />
        <mxCell id="uglMqXCWVBDbte64y6dn-6" style="edgeStyle=orthogonalEdgeStyle;rounded=0;orthogonalLoop=1;jettySize=auto;html=1;entryX=0;entryY=0.5;entryDx=0;entryDy=0;" edge="1" parent="1" source="uglMqXCWVBDbte64y6dn-1" target="uglMqXCWVBDbte64y6dn-4">
          <mxGeometry relative="1" as="geometry">
            <Array as="points">
              <mxPoint x="330" y="180" />
              <mxPoint x="330" y="80" />
            </Array>
          </mxGeometry>
        </mxCell>
        <mxCell id="uglMqXCWVBDbte64y6dn-18" value="obraz" style="edgeLabel;html=1;align=center;verticalAlign=middle;resizable=0;points=[];" vertex="1" connectable="0" parent="uglMqXCWVBDbte64y6dn-6">
          <mxGeometry x="0.7113" y="-1" relative="1" as="geometry">
            <mxPoint as="offset" />
          </mxGeometry>
        </mxCell>
        <mxCell id="uglMqXCWVBDbte64y6dn-1" value="&lt;b&gt;Zdjęcie, obraz (.png, .jpg ...)&lt;/b&gt;" style="rounded=1;whiteSpace=wrap;html=1;" vertex="1" parent="1">
          <mxGeometry x="110" y="140" width="170" height="80" as="geometry" />
        </mxCell>
        <mxCell id="uglMqXCWVBDbte64y6dn-11" value="" style="edgeStyle=orthogonalEdgeStyle;rounded=0;orthogonalLoop=1;jettySize=auto;html=1;" edge="1" parent="1" source="uglMqXCWVBDbte64y6dn-4" target="uglMqXCWVBDbte64y6dn-10">
          <mxGeometry relative="1" as="geometry" />
        </mxCell>
        <mxCell id="uglMqXCWVBDbte64y6dn-4" value="ThreadArt&lt;br&gt;Aplikacja na telefon" style="rounded=1;whiteSpace=wrap;html=1;" vertex="1" parent="1">
          <mxGeometry x="390" y="50" width="140" height="60" as="geometry" />
        </mxCell>
        <mxCell id="uglMqXCWVBDbte64y6dn-21" style="edgeStyle=orthogonalEdgeStyle;rounded=0;orthogonalLoop=1;jettySize=auto;html=1;" edge="1" parent="1" source="uglMqXCWVBDbte64y6dn-5" target="uglMqXCWVBDbte64y6dn-20">
          <mxGeometry relative="1" as="geometry" />
        </mxCell>
        <mxCell id="uglMqXCWVBDbte64y6dn-22" value="obraz 1:1" style="edgeLabel;html=1;align=center;verticalAlign=middle;resizable=0;points=[];" vertex="1" connectable="0" parent="uglMqXCWVBDbte64y6dn-21">
          <mxGeometry x="-0.3045" y="3" relative="1" as="geometry">
            <mxPoint x="14" y="3" as="offset" />
          </mxGeometry>
        </mxCell>
        <mxCell id="uglMqXCWVBDbte64y6dn-5" value="CropImageToSquare" style="rounded=1;whiteSpace=wrap;html=1;" vertex="1" parent="1">
          <mxGeometry x="500" y="300" width="140" height="60" as="geometry" />
        </mxCell>
        <mxCell id="uglMqXCWVBDbte64y6dn-9" value="" style="endArrow=classic;html=1;rounded=0;entryX=0.005;entryY=0.461;entryDx=0;entryDy=0;entryPerimeter=0;" edge="1" parent="1" target="uglMqXCWVBDbte64y6dn-5">
          <mxGeometry width="50" height="50" relative="1" as="geometry">
            <mxPoint x="330" y="180" as="sourcePoint" />
            <mxPoint x="480" y="170" as="targetPoint" />
            <Array as="points">
              <mxPoint x="330" y="267" />
              <mxPoint x="330" y="330" />
            </Array>
          </mxGeometry>
        </mxCell>
        <mxCell id="uglMqXCWVBDbte64y6dn-19" value="obraz wejściowy" style="edgeLabel;html=1;align=center;verticalAlign=middle;resizable=0;points=[];" vertex="1" connectable="0" parent="uglMqXCWVBDbte64y6dn-9">
          <mxGeometry x="0.4209" y="3" relative="1" as="geometry">
            <mxPoint x="22" y="4" as="offset" />
          </mxGeometry>
        </mxCell>
        <mxCell id="uglMqXCWVBDbte64y6dn-10" value="Plik TXT&lt;br&gt;(instrukcja)" style="rounded=1;whiteSpace=wrap;html=1;" vertex="1" parent="1">
          <mxGeometry x="610" y="50" width="120" height="60" as="geometry" />
        </mxCell>
        <mxCell id="uglMqXCWVBDbte64y6dn-14" value="" style="endArrow=none;dashed=1;html=1;dashPattern=1 3;strokeWidth=2;rounded=0;" edge="1" parent="1">
          <mxGeometry width="50" height="50" relative="1" as="geometry">
            <mxPoint x="360" y="200" as="sourcePoint" />
            <mxPoint x="360" y="600" as="targetPoint" />
          </mxGeometry>
        </mxCell>
        <mxCell id="uglMqXCWVBDbte64y6dn-15" value="" style="endArrow=none;dashed=1;html=1;dashPattern=1 3;strokeWidth=2;rounded=0;" edge="1" parent="1">
          <mxGeometry width="50" height="50" relative="1" as="geometry">
            <mxPoint x="360" y="200" as="sourcePoint" />
            <mxPoint x="1170" y="200" as="targetPoint" />
          </mxGeometry>
        </mxCell>
        <mxCell id="uglMqXCWVBDbte64y6dn-17" value="&lt;font style=&quot;font-size: 14px;&quot;&gt;STR_ART - Aplikacja na komputer&lt;/font&gt;" style="text;html=1;strokeColor=none;fillColor=none;align=center;verticalAlign=middle;whiteSpace=wrap;rounded=0;" vertex="1" parent="1">
          <mxGeometry x="370" y="165" width="240" height="30" as="geometry" />
        </mxCell>
        <mxCell id="uglMqXCWVBDbte64y6dn-28" style="edgeStyle=orthogonalEdgeStyle;rounded=0;orthogonalLoop=1;jettySize=auto;html=1;" edge="1" parent="1" source="uglMqXCWVBDbte64y6dn-20" target="uglMqXCWVBDbte64y6dn-27">
          <mxGeometry relative="1" as="geometry" />
        </mxCell>
        <mxCell id="uglMqXCWVBDbte64y6dn-29" value="obraz przeskalowany" style="edgeLabel;html=1;align=center;verticalAlign=middle;resizable=0;points=[];" vertex="1" connectable="0" parent="uglMqXCWVBDbte64y6dn-28">
          <mxGeometry x="0.0163" y="-3" relative="1" as="geometry">
            <mxPoint y="-3" as="offset" />
          </mxGeometry>
        </mxCell>
        <mxCell id="uglMqXCWVBDbte64y6dn-20" value="ResizeImage" style="rounded=1;whiteSpace=wrap;html=1;" vertex="1" parent="1">
          <mxGeometry x="770" y="300" width="140" height="60" as="geometry" />
        </mxCell>
        <mxCell id="uglMqXCWVBDbte64y6dn-26" style="edgeStyle=orthogonalEdgeStyle;rounded=0;orthogonalLoop=1;jettySize=auto;html=1;entryX=0.5;entryY=0;entryDx=0;entryDy=0;" edge="1" parent="1" source="uglMqXCWVBDbte64y6dn-24" target="uglMqXCWVBDbte64y6dn-20">
          <mxGeometry relative="1" as="geometry">
            <mxPoint x="830.0344827586207" y="260" as="targetPoint" />
          </mxGeometry>
        </mxCell>
        <mxCell id="uglMqXCWVBDbte64y6dn-24" value="nowy rozmiar" style="rounded=0;whiteSpace=wrap;html=1;fillColor=#ffe6cc;strokeColor=#d79b00;" vertex="1" parent="1">
          <mxGeometry x="660" y="250" width="80" height="20" as="geometry" />
        </mxCell>
        <mxCell id="uglMqXCWVBDbte64y6dn-27" value="ConvertToBlackAndWhite" style="rounded=1;whiteSpace=wrap;html=1;" vertex="1" parent="1">
          <mxGeometry x="1090" y="300" width="160" height="60" as="geometry" />
        </mxCell>
      </root>
    </mxGraphModel>
  </diagram>
</mxfile>
